<?xml version="1.0" encoding="UTF-8"?>
<svg xmlns="http://www.w3.org/2000/svg" width="25.735" height="20" viewBox="0 0 25.735 20">
  <path id="Tracé_195908" data-name="Tracé 195908" d="M367.243,234.285c-.092-.707-3.771-3.619-4.608-4.445a33.568,33.568,0,0,1-3.08-3.535,1.317,1.317,0,0,1-.229-1.588,1.439,1.439,0,0,1,1.536-.816,24.128,24.128,0,0,1,3.766,1.036,103.794,103.794,0,0,1,17.282,7.691c.6.329,1.2.681,1.824.961a2.28,2.28,0,0,1,1.149,1.116v.831a2.835,2.835,0,0,1-1.125,1.037,59.942,59.942,0,0,1-15.7,6.249,55.953,55.953,0,0,1-5.612,1.018c-.682.093-1.347.082-1.744-.641a1.6,1.6,0,0,1,.357-1.944c1.448-1.639,6.232-6.614,6.185-6.97m13.059.739A110.8,110.8,0,0,0,364.572,228c1.33,1.339,2.534,2.53,3.71,3.747a1.816,1.816,0,0,0,1.114.6,1.224,1.224,0,0,1,1.125,1.193,3.506,3.506,0,0,1-.932,2.371,25.037,25.037,0,0,1-2.428,2.639c-.444.48-.859.986-1.4,1.61a54.486,54.486,0,0,0,14.541-5.133" transform="translate(-359.147 -223.882)" fill="#d19166"></path>
</svg>
