<?xml version="1.0" encoding="UTF-8"?>
<svg xmlns="http://www.w3.org/2000/svg" width="16.866" height="13.107" viewBox="0 0 16.866 13.107">
  <path id="Tracé_195882" data-name="Tracé 195882" d="M364.453,230.7c-.06-.463-2.472-2.372-3.02-2.913a22,22,0,0,1-2.018-2.317.863.863,0,0,1-.15-1.041.943.943,0,0,1,1.007-.535,15.811,15.811,0,0,1,2.468.679,68.022,68.022,0,0,1,11.326,5.041c.4.215.785.447,1.2.63a1.494,1.494,0,0,1,.753.731v.545a1.858,1.858,0,0,1-.737.679,39.285,39.285,0,0,1-10.29,4.1,36.669,36.669,0,0,1-3.678.667c-.447.061-.883.053-1.143-.42a1.045,1.045,0,0,1,.234-1.274c.949-1.074,4.084-4.335,4.054-4.568m8.559.485a72.617,72.617,0,0,0-10.309-4.607c.872.878,1.66,1.658,2.431,2.456a1.19,1.19,0,0,0,.73.394.8.8,0,0,1,.737.782,2.3,2.3,0,0,1-.611,1.554,16.414,16.414,0,0,1-1.591,1.73c-.291.314-.563.647-.917,1.055a35.707,35.707,0,0,0,9.53-3.364" transform="translate(-359.148 -223.881)" fill="#fff"></path>
</svg>
